<?xml version="1.0" encoding="UTF-8" standalone="no"?>
<!-- Created with Inkscape (http://www.inkscape.org/) -->
<svg
   xmlns:dc="http://purl.org/dc/elements/1.1/"
   xmlns:cc="http://web.resource.org/cc/"
   xmlns:rdf="http://www.w3.org/1999/02/22-rdf-syntax-ns#"
   xmlns:svg="http://www.w3.org/2000/svg"
   xmlns="http://www.w3.org/2000/svg"
   xmlns:sodipodi="http://sodipodi.sourceforge.net/DTD/sodipodi-0.dtd"
   xmlns:inkscape="http://www.inkscape.org/namespaces/inkscape"
   width="498.21219"
   height="332.76514"
   id="svg2024"
   sodipodi:version="0.32"
   inkscape:version="0.44"
   version="1.0"
   sodipodi:docbase="/tmp"
   sodipodi:docname="bino.svg">
  <defs
     id="defs2026" />
  <sodipodi:namedview
     id="base"
     pagecolor="#ffffff"
     bordercolor="#666666"
     borderopacity="1.0"
     inkscape:pageopacity="0.0"
     inkscape:pageshadow="2"
     inkscape:zoom="0.98994949"
     inkscape:cx="240.90097"
     inkscape:cy="214.81076"
     inkscape:document-units="px"
     inkscape:current-layer="layer1"
     inkscape:window-width="982"
     inkscape:window-height="588"
     inkscape:window-x="32"
     inkscape:window-y="128" />
  <metadata
     id="metadata2029">
    <rdf:RDF>
      <cc:Work
         rdf:about="">
        <dc:format>image/svg+xml</dc:format>
        <dc:type
           rdf:resource="http://purl.org/dc/dcmitype/StillImage" />
      </cc:Work>
    </rdf:RDF>
  </metadata>
  <g
     inkscape:label="Ebene 1"
     inkscape:groupmode="layer"
     id="layer1"
     transform="translate(650.5499,-252.653)">
    <g
       id="g2082"
       transform="translate(21.34357,-14.24091)">
      <path
         id="path2077"
         style="fill:white;fill-opacity:1;stroke:black;stroke-width:2.07584524;stroke-miterlimit:10;stroke-opacity:1"
         d="M -596.138,304.65384 C -596.138,292.28797 -606.16503,282.26224 -618.53364,282.26224 C -630.90225,282.26224 -640.92928,292.28797 -640.92928,304.65384 C -640.92928,317.01971 -630.90225,327.04454 -618.53364,327.04454 C -606.16503,327.04454 -596.138,317.01971 -596.138,304.65384 z " />
      <path
         id="path2087"
         style="fill:white;fill-opacity:1;stroke:black;stroke-width:2.07584524;stroke-miterlimit:10;stroke-opacity:1"
         d="M -462.80964,304.65384 C -462.80964,292.28797 -472.83667,282.26224 -485.20527,282.26224 C -497.57389,282.26224 -507.60092,292.28797 -507.60092,304.65384 C -507.60092,317.01971 -497.57389,327.04454 -485.20527,327.04454 C -472.83667,327.04454 -462.80964,317.01971 -462.80964,304.65384 z " />
      <path
         id="path2097"
         style="fill:white;fill-opacity:1;stroke:black;stroke-width:2.07584524;stroke-miterlimit:10;stroke-opacity:1"
         d="M -529.47382,384.63425 C -529.47382,372.26839 -539.50085,362.24357 -551.86946,362.24357 C -564.2383,362.24357 -574.26534,372.26839 -574.26534,384.63425 C -574.26534,397.00011 -564.2383,407.02494 -551.86946,407.02494 C -539.50085,407.02494 -529.47382,397.00011 -529.47382,384.63425 z " />
      <path
         id="path2107"
         style="fill:white;fill-opacity:1;stroke:black;stroke-width:2.07584524;stroke-miterlimit:10;stroke-opacity:1"
         d="M -462.80964,384.63425 C -462.80964,372.26839 -472.83667,362.24357 -485.20527,362.24357 C -497.57389,362.24357 -507.60092,372.26839 -507.60092,384.63425 C -507.60092,397.00011 -497.57389,407.02494 -485.20527,407.02494 C -472.83667,407.02494 -462.80964,397.00011 -462.80964,384.63425 z " />
      <path
         id="path2117"
         style="fill:white;fill-opacity:1;stroke:black;stroke-width:2.07584524;stroke-miterlimit:10;stroke-opacity:1"
         d="M -529.47382,464.61346 C -529.47382,452.24758 -539.50085,442.22257 -551.86946,442.22257 C -564.2383,442.22257 -574.26534,452.24758 -574.26534,464.61346 C -574.26534,476.97932 -564.2383,487.00414 -551.86946,487.00414 C -539.50085,487.00414 -529.47382,476.97932 -529.47382,464.61346 z " />
      <path
         id="path2127"
         style="fill:none;stroke:black;stroke-width:2.07584524;stroke-miterlimit:10;stroke-opacity:1"
         d="M -500.15267,322.52262 L -536.94171,366.6617" />
      <path
         id="path2129"
         style="fill:none;stroke:black;stroke-width:2.07584524;stroke-miterlimit:10;stroke-opacity:1"
         d="M -485.21381,327.92903 L -485.21381,361.25528" />
      <path
         id="path2131"
         style="fill:none;stroke:black;stroke-width:2.07584524;stroke-miterlimit:10;stroke-opacity:1"
         d="M -551.87895,407.91011 L -551.87895,441.23401" />
      <path
         id="path2137"
         style="fill:white;fill-opacity:1;stroke:black;stroke-width:2.07584524;stroke-miterlimit:10;stroke-opacity:1"
         d="M -196.15247,304.65384 C -196.15247,292.28797 -206.18042,282.26224 -218.54904,282.26224 C -230.91761,282.26224 -240.94325,292.28797 -240.94325,304.65384 C -240.94325,317.01971 -230.91761,327.04454 -218.54904,327.04454 C -206.18042,327.04454 -196.15247,317.01971 -196.15247,304.65384 z " />
      <path
         id="path2147"
         style="fill:white;fill-opacity:1;stroke:black;stroke-width:2.07584524;stroke-miterlimit:10;stroke-opacity:1"
         d="M -329.4822,384.63425 C -329.4822,372.26839 -339.50782,362.24357 -351.87646,362.24357 C -364.24506,362.24357 -374.27302,372.26839 -374.27302,384.63425 C -374.27302,397.00011 -364.24506,407.02494 -351.87646,407.02494 C -339.50782,407.02494 -329.4822,397.00011 -329.4822,384.63425 z " />
      <path
         id="path2157"
         style="fill:white;fill-opacity:1;stroke:black;stroke-width:2.07584524;stroke-miterlimit:10;stroke-opacity:1"
         d="M -262.81733,384.63425 C -262.81733,372.26839 -272.84293,362.24357 -285.21157,362.24357 C -297.58017,362.24357 -307.60814,372.26839 -307.60814,384.63425 C -307.60814,397.00011 -297.58017,407.02494 -285.21157,407.02494 C -272.84293,407.02494 -262.81733,397.00011 -262.81733,384.63425 z " />
      <path
         id="path2167"
         style="fill:white;fill-opacity:1;stroke:black;stroke-width:2.07584524;stroke-miterlimit:10;stroke-opacity:1"
         d="M -196.15247,384.63425 C -196.15247,372.26839 -206.18042,362.24357 -218.54904,362.24357 C -230.91761,362.24357 -240.94325,372.26839 -240.94325,384.63425 C -240.94325,397.00011 -230.91761,407.02494 -218.54904,407.02494 C -206.18042,407.02494 -196.15247,397.00011 -196.15247,384.63425 z " />
      <path
         id="path2177"
         style="fill:white;fill-opacity:1;stroke:black;stroke-width:2.07584524;stroke-miterlimit:10;stroke-opacity:1"
         d="M -396.14523,464.61346 C -396.14523,452.24758 -406.17227,442.22257 -418.54085,442.22257 C -430.9097,442.22257 -440.93672,452.24758 -440.93672,464.61346 C -440.93672,476.97932 -430.9097,487.00414 -418.54085,487.00414 C -406.17227,487.00414 -396.14523,476.97932 -396.14523,464.61346 z " />
      <path
         id="path2187"
         style="fill:white;fill-opacity:1;stroke:black;stroke-width:2.07584524;stroke-miterlimit:10;stroke-opacity:1"
         d="M -329.4822,464.61346 C -329.4822,452.24758 -339.50782,442.22257 -351.87646,442.22257 C -364.24506,442.22257 -374.27302,452.24758 -374.27302,464.61346 C -374.27302,476.97932 -364.24506,487.00414 -351.87646,487.00414 C -339.50782,487.00414 -329.4822,476.97932 -329.4822,464.61346 z " />
      <path
         id="path2197"
         style="fill:white;fill-opacity:1;stroke:black;stroke-width:2.07584524;stroke-miterlimit:10;stroke-opacity:1"
         d="M -262.81733,464.61346 C -262.81733,452.24758 -272.84293,442.22257 -285.21157,442.22257 C -297.58017,442.22257 -307.60814,452.24758 -307.60814,464.61346 C -307.60814,476.97932 -297.58017,487.00414 -285.21157,487.00414 C -272.84293,487.00414 -262.81733,476.97932 -262.81733,464.61346 z " />
      <path
         id="path2207"
         style="fill:white;fill-opacity:1;stroke:black;stroke-width:2.07584524;stroke-miterlimit:10;stroke-opacity:1"
         d="M -396.14523,544.59245 C -396.14523,532.22659 -406.17227,522.20176 -418.54085,522.20176 C -430.9097,522.20176 -440.93672,532.22659 -440.93672,544.59245 C -440.93672,556.95832 -430.9097,566.98313 -418.54085,566.98313 C -406.17227,566.98313 -396.14523,556.95832 -396.14523,544.59245 z " />
      <path
         id="path2217"
         style="fill:none;stroke:black;stroke-width:2.07584524;stroke-miterlimit:10;stroke-opacity:1"
         d="M -233.49551,322.52262 L -270.28501,366.6617" />
      <path
         id="path2221"
         style="fill:none;stroke:black;stroke-width:2.07584524;stroke-miterlimit:10;stroke-opacity:1"
         d="M -218.55662,327.92903 L -218.55662,361.25528" />
      <path
         id="path2223"
         style="fill:none;stroke:black;stroke-width:2.07584524;stroke-miterlimit:10;stroke-opacity:1"
         d="M -238.56569,316.60557 L -331.87732,372.5811" />
      <path
         id="path2225"
         style="fill:none;stroke:black;stroke-width:2.07584524;stroke-miterlimit:10;stroke-opacity:1"
         d="M -285.22151,407.91011 L -285.22151,441.23401" />
      <path
         id="path2227"
         style="fill:none;stroke:black;stroke-width:2.07584524;stroke-miterlimit:10;stroke-opacity:1"
         d="M -351.88641,407.91011 L -351.88641,441.23401" />
      <path
         id="path2229"
         style="fill:none;stroke:black;stroke-width:2.07584524;stroke-miterlimit:10;stroke-opacity:1"
         d="M -366.82291,402.50371 L -403.61241,446.64042" />
      <path
         id="path2233"
         style="fill:none;stroke:black;stroke-width:2.07584524;stroke-miterlimit:10;stroke-opacity:1"
         d="M -418.55128,487.88887 L -418.55128,521.21276" />
      <text
         id="text2237"
         style="font-size:0.02282194px;fill:black;stroke:none;stroke-miterlimit:10;font-family:sans-serif"
         transform="scale(1.00011,-0.99989)"
         y="-585.3764"
         x="-650.39117">1</text>
      <text
         transform="scale(1.00011,0.99989)"
         xml:space="preserve"
         id="text2401"
         style="font-size:28.21993637px;font-style:normal;font-weight:normal;fill:black;fill-opacity:1;stroke:none;stroke-width:1px;stroke-linecap:butt;stroke-linejoin:miter;stroke-opacity:1;font-family:Serif"
         y="314.95959"
         x="-627.3808"><tspan
           id="tspan2403"
           y="314.95959"
           x="-627.3808">9</tspan></text>
      <text
         transform="scale(1.00011,0.99989)"
         xml:space="preserve"
         id="text2405"
         style="font-size:28.21993637px;font-style:normal;font-weight:normal;fill:black;fill-opacity:1;stroke:none;stroke-width:1px;stroke-linecap:butt;stroke-linejoin:miter;stroke-opacity:1;font-family:Serif"
         y="315.15939"
         x="-236.82268"><tspan
           id="tspan2407"
           y="315.15939"
           x="-236.82268">12</tspan></text>
      <text
         transform="scale(1.00011,0.99989)"
         xml:space="preserve"
         id="text2409"
         style="font-size:28.21993637px;font-style:normal;font-weight:normal;fill:black;fill-opacity:1;stroke:none;stroke-width:1px;stroke-linecap:butt;stroke-linejoin:miter;stroke-opacity:1;font-family:Serif"
         y="395.14923"
         x="-303.48019"><tspan
           id="tspan2411"
           y="395.14923"
           x="-303.48019">12</tspan></text>
      <text
         transform="scale(1.00011,0.99989)"
         xml:space="preserve"
         id="text2413"
         style="font-size:28.21993637px;font-style:normal;font-weight:normal;fill:black;fill-opacity:1;stroke:none;stroke-width:1px;stroke-linecap:butt;stroke-linejoin:miter;stroke-opacity:1;font-family:Serif"
         y="394.9632"
         x="-236.65039"><tspan
           id="tspan2415"
           y="394.9632"
           x="-236.65039">77</tspan></text>
      <text
         transform="scale(1.00011,0.99989)"
         xml:space="preserve"
         id="text2417"
         style="font-size:28.21993637px;font-style:normal;font-weight:normal;fill:black;fill-opacity:1;stroke:none;stroke-width:1px;stroke-linecap:butt;stroke-linejoin:miter;stroke-opacity:1;font-family:Serif"
         y="474.93741"
         x="-303.05304"><tspan
           id="tspan2419"
           y="474.93741"
           x="-303.05304">23</tspan></text>
      <text
         transform="scale(1.00011,0.99989)"
         xml:space="preserve"
         id="text2421"
         style="font-size:28.21993637px;font-style:normal;font-weight:normal;fill:black;fill-opacity:1;stroke:none;stroke-width:1px;stroke-linecap:butt;stroke-linejoin:miter;stroke-opacity:1;font-family:Serif"
         y="394.9494"
         x="-369.7106"><tspan
           id="tspan2423"
           y="394.9494"
           x="-369.7106">23</tspan></text>
      <text
         transform="scale(1.00011,0.99989)"
         xml:space="preserve"
         id="text2425"
         style="font-size:28.21993637px;font-style:normal;font-weight:normal;fill:black;fill-opacity:1;stroke:none;stroke-width:1px;stroke-linecap:butt;stroke-linejoin:miter;stroke-opacity:1;font-family:Serif"
         y="475.13721"
         x="-370.04816"><tspan
           id="tspan2427"
           y="475.13721"
           x="-370.04816">24</tspan></text>
      <text
         transform="scale(1.00011,0.99989)"
         xml:space="preserve"
         id="text2429"
         style="font-size:28.21993637px;font-style:normal;font-weight:normal;fill:black;fill-opacity:1;stroke:none;stroke-width:1px;stroke-linecap:butt;stroke-linejoin:miter;stroke-opacity:1;font-family:Serif"
         y="474.93741"
         x="-436.48376"><tspan
           id="tspan2431"
           y="474.93741"
           x="-436.48376">33</tspan></text>
      <text
         transform="scale(1.00011,0.99989)"
         xml:space="preserve"
         id="text2433"
         style="font-size:28.21993637px;font-style:normal;font-weight:normal;fill:black;fill-opacity:1;stroke:none;stroke-width:1px;stroke-linecap:butt;stroke-linejoin:miter;stroke-opacity:1;font-family:Serif"
         y="554.92535"
         x="-436.60776"><tspan
           id="tspan2435"
           y="554.92535"
           x="-436.60776">53</tspan></text>
      <text
         transform="scale(1.00011,0.99989)"
         xml:space="preserve"
         id="text2437"
         style="font-size:28.21993637px;font-style:normal;font-weight:normal;fill:black;fill-opacity:1;stroke:none;stroke-width:1px;stroke-linecap:butt;stroke-linejoin:miter;stroke-opacity:1;font-family:Serif"
         y="314.77359"
         x="-494.23929"><tspan
           id="tspan2439"
           y="314.77359"
           x="-494.23929">5</tspan></text>
      <text
         transform="scale(1.00011,0.99989)"
         xml:space="preserve"
         id="text2441"
         style="font-size:28.21993637px;font-style:normal;font-weight:normal;fill:black;fill-opacity:1;stroke:none;stroke-width:1px;stroke-linecap:butt;stroke-linejoin:miter;stroke-opacity:1;font-family:Serif"
         y="395.14923"
         x="-570.4729"><tspan
           id="tspan2443"
           y="395.14923"
           x="-570.4729">17</tspan></text>
      <text
         transform="scale(1.00011,0.99989)"
         xml:space="preserve"
         id="text2445"
         style="font-size:28.21993637px;font-style:normal;font-weight:normal;fill:black;fill-opacity:1;stroke:none;stroke-width:1px;stroke-linecap:butt;stroke-linejoin:miter;stroke-opacity:1;font-family:Serif"
         y="395.14923"
         x="-502.06589"><tspan
           id="tspan2447"
           y="395.14923"
           x="-502.06589">21</tspan></text>
      <text
         transform="scale(1.00011,0.99989)"
         xml:space="preserve"
         id="text2449"
         style="font-size:28.21993637px;font-style:normal;font-weight:normal;fill:black;fill-opacity:1;stroke:none;stroke-width:1px;stroke-linecap:butt;stroke-linejoin:miter;stroke-opacity:1;font-family:Serif"
         y="474.93741"
         x="-569.70807"><tspan
           id="tspan2451"
           y="474.93741"
           x="-569.70807">99</tspan></text>
    </g>
  </g>
</svg>
